<?xml version="1.0" encoding="UTF-8"?>
<svg id="Layer_1" data-name="Layer 1" xmlns="http://www.w3.org/2000/svg" viewBox="0 0 100 100">
  <defs>
    <style>
      .cls-1 {
        fill: #fff;
        stroke-width: 0px;
      }
    </style>
  </defs>
  <g id="Insta">
    <path class="cls-1" d="M50.68,33.83c-8.72,0-15.95,7.1-15.95,15.95s7.1,15.95,15.95,15.95,15.95-7.23,15.95-15.95-7.23-15.95-15.95-15.95ZM50.68,59.99c-5.61,0-10.22-4.61-10.22-10.22s4.61-10.22,10.22-10.22,10.22,4.61,10.22,10.22-4.61,10.22-10.22,10.22Z"/>
    <circle class="cls-1" cx="67.25" cy="33.45" r="3.61"/>
    <path class="cls-1" d="M76.59,24.11c-3.24-3.36-7.85-5.11-13.08-5.11h-25.67c-10.84,0-18.07,7.23-18.07,18.07v25.54c0,5.36,1.74,9.97,5.23,13.33,3.36,3.24,7.85,4.86,12.96,4.86h25.42c5.36,0,9.84-1.74,13.08-4.86,3.36-3.24,5.11-7.85,5.11-13.21v-25.67c0-5.23-1.74-9.72-4.98-12.96ZM76.09,62.73c0,3.86-1.37,6.98-3.61,9.1s-5.36,3.24-9.1,3.24h-25.42c-3.74,0-6.85-1.12-9.1-3.24-2.24-2.24-3.36-5.36-3.36-9.22v-25.54c0-3.74,1.12-6.85,3.36-9.1,2.12-2.12,5.36-3.24,9.1-3.24h25.67c3.74,0,6.85,1.12,9.1,3.36,2.12,2.24,3.36,5.36,3.36,8.97v25.67h0Z"/>
  </g>
</svg>