<?xml version="1.0" encoding="UTF-8"?>
<svg id="Layer_1" data-name="Layer 1" xmlns="http://www.w3.org/2000/svg" viewBox="0 0 100 100">
  <defs>
    <style>
      .cls-1 {
        fill: #fff;
        stroke-width: 0px;
      }
    </style>
  </defs>
  <g id="linkedin">
    <g>
      <rect class="cls-1" x="20.61" y="38.99" width="13.5" height="41.63"/>
      <path class="cls-1" d="M70.9,39.48c-.14-.04-.28-.09-.43-.14-.18-.04-.36-.08-.55-.11-.72-.14-1.5-.25-2.42-.25-7.87,0-12.87,5.74-14.51,7.96v-7.96h-13.5v41.63h13.5v-22.71s10.2-14.25,14.51-3.79v26.49h13.5v-28.09c0-6.29-4.3-11.53-10.1-13.05h0Z"/>
      <path class="cls-1" d="M33.82,26.69c0,3.66-2.96,6.62-6.6,6.62s-6.61-2.96-6.61-6.62,2.96-6.62,6.61-6.62c3.65,0,6.6,2.97,6.6,6.62h0Z"/>
    </g>
  </g>
</svg>